<svg width="60" height="60" viewBox="0 0 60 60" fill="none" xmlns="http://www.w3.org/2000/svg">
<circle cx="30" cy="30" r="30" fill="#2F2926"/>
<path fill-rule="evenodd" clip-rule="evenodd" d="M32.0486 23.0488V25.7723H27.951V23.0488C27.951 21.9173 28.8683 21 29.9998 21C31.1313 21 32.0486 21.9173 32.0486 23.0488ZM25.951 23.0488C25.951 20.8127 27.7637 19 29.9998 19C32.2359 19 34.0486 20.8127 34.0486 23.0488V25.7723V26.4227H35.5427C36.6103 26.4227 37.4896 27.2612 37.5404 28.3276L37.9977 37.9314C38.0521 39.0721 37.1419 40.0266 36 40.0266H24C22.858 40.0266 21.9479 39.0721 22.0022 37.9314L22.4596 28.3276C22.5103 27.2612 23.3897 26.4227 24.4573 26.4227H25.951V25.7723V23.0488ZM24.4573 28.4227H35.5427L36 38.0266H24L24.4573 28.4227Z" fill="white"/>
</svg>
